<?xml version="1.0" encoding="iso-8859-1"?>
<!-- Generator: Adobe Illustrator 19.0.0, SVG Export Plug-In . SVG Version: 6.00 Build 0)  -->
<svg version="1.1" id="Layer_1" xmlns="http://www.w3.org/2000/svg" xmlns:xlink="http://www.w3.org/1999/xlink" x="0px" y="0px"
	 viewBox="2 2 20 20" style="enable-background:new 2 2 20 20;" xml:space="preserve" preserveAspectRatio="xMidYMid">
	 <g id="arrow-down"><path d="M12 4.5q0.311 0 0.53 0.22t0.22 0.53v11.689l3.967-3.973q0.217-0.217 0.533-0.217 0.322 0 0.536 0.214t0.214 0.536q0 0.316-0.217 0.533l-5.25 5.25q-0.217 0.217-0.533 0.217t-0.533-0.217l-5.25-5.25q-0.217-0.217-0.217-0.533 0-0.322 0.214-0.536t0.536-0.214q0.316 0 0.533 0.217l3.967 3.973v-11.689q0-0.311 0.22-0.53t0.53-0.22z"></path></g>
</svg>
