<?xml version="1.0" encoding="iso-8859-1"?>
<!-- Generator: Adobe Illustrator 19.0.0, SVG Export Plug-In . SVG Version: 6.00 Build 0)  -->
<svg version="1.1" id="Layer_1" xmlns="http://www.w3.org/2000/svg" xmlns:xlink="http://www.w3.org/1999/xlink" x="0px" y="0px"
	 viewBox="2 2 20 20" style="enable-background:new 2 2 20 20;" xml:space="preserve" preserveAspectRatio="xMidYMid">
	 <g id="cross"><path d="M17.25 6q0.322 0 0.536 0.214t0.214 0.536q0 0.316-0.217 0.533l-4.723 4.717 4.723 4.717q0.217 0.217 0.217 0.533 0 0.322-0.214 0.536t-0.536 0.214q-0.316 0-0.533-0.217l-4.717-4.723-4.717 4.723q-0.217 0.217-0.533 0.217-0.322 0-0.536-0.214t-0.214-0.536q0-0.316 0.217-0.533l4.723-4.717-4.723-4.717q-0.217-0.217-0.217-0.533 0-0.322 0.214-0.536t0.536-0.214q0.316 0 0.533 0.217l4.717 4.723 4.717-4.723q0.217-0.217 0.533-0.217z"></path></g>
</svg>
