<?xml version="1.0" encoding="iso-8859-1"?>
<!-- Generator: Adobe Illustrator 19.0.0, SVG Export Plug-In . SVG Version: 6.00 Build 0)  -->
<svg version="1.1" id="Layer_1" xmlns="http://www.w3.org/2000/svg" xmlns:xlink="http://www.w3.org/1999/xlink" x="0px" y="0px"
	 viewBox="2 2 20 20" style="enable-background:new 2 2 20 20;" xml:space="preserve" preserveAspectRatio="xMidYMid">
	 <g id="ellipsis"><path d="M18 9.75q0.932 0 1.591 0.659t0.659 1.591-0.659 1.591-1.591 0.659-1.591-0.659-0.659-1.591 0.659-1.591 1.591-0.659zM6 9.75q0.932 0 1.591 0.659t0.659 1.591-0.659 1.591-1.591 0.659-1.591-0.659-0.659-1.591 0.659-1.591 1.591-0.659zM6 11.25q-0.311 0-0.53 0.22t-0.22 0.53 0.22 0.53 0.53 0.22 0.53-0.22 0.22-0.53-0.22-0.53-0.53-0.22zM12 9.75q0.932 0 1.591 0.659t0.659 1.591-0.659 1.591-1.591 0.659-1.591-0.659-0.659-1.591 0.659-1.591 1.591-0.659zM12 11.25q-0.311 0-0.53 0.22t-0.22 0.53 0.22 0.53 0.53 0.22 0.53-0.22 0.22-0.53-0.22-0.53-0.53-0.22zM18 11.25q-0.311 0-0.53 0.22t-0.22 0.53 0.22 0.53 0.53 0.22 0.53-0.22 0.22-0.53-0.22-0.53-0.53-0.22z"></path></g>
	 
</svg>
