<?xml version="1.0" encoding="iso-8859-1"?>
<!-- Generator: Adobe Illustrator 19.0.0, SVG Export Plug-In . SVG Version: 6.00 Build 0)  -->
<svg version="1.1" id="Layer_1" xmlns="http://www.w3.org/2000/svg" xmlns:xlink="http://www.w3.org/1999/xlink" x="0px" y="0px"
	 viewBox="2 2 20 20" style="enable-background:new 2 2 20 20;" xml:space="preserve" preserveAspectRatio="xMidYMid">
	 <g id="inbox"><path d="M12 3.75q0.311 0 0.53 0.22t0.22 0.53v8.689l2.467-2.473q0.217-0.217 0.533-0.217 0.322 0 0.536 0.214t0.214 0.536q0 0.316-0.217 0.533l-3.75 3.75q-0.217 0.217-0.533 0.217t-0.533-0.217l-3.75-3.75q-0.217-0.229-0.217-0.533 0-0.311 0.22-0.53t0.53-0.22q0.316 0 0.533 0.217l2.467 2.473v-8.689q0-0.311 0.22-0.53t0.53-0.22zM19.5 14.25q0.311 0 0.53 0.22t0.22 0.53v3q0 0.938-0.65 1.588-0.662 0.662-1.582 0.662h-12.018q-0.92 0-1.594-0.656-0.656-0.674-0.656-1.594v-3q0-0.311 0.22-0.53t0.53-0.22 0.53 0.22 0.22 0.53v3q0 0.311 0.22 0.53t0.53 0.22h12.018q0.305 0 0.519-0.22t0.214-0.53v-3q0-0.311 0.22-0.53t0.53-0.22z"></path></g>

</svg>
